# File created by Blade
# Date/Time:  Tue Jan 27 20:07:51 2015
# Frame Rate: 120.000 fps
#------------------------------------------------------
:FULLY-SPECIFIED
:DEGREES
2564
root 6.177853 32.432716 -4.200256 1.394703 -30.626412 -9.278705
Spine 2.213164 17.798949 1.181768
Head 25.505612 -9.955970 4.026500
LeftShoulder -16.303880 3.487046 28.937945
LeftArm -13.767764 -29.834832 -72.713953
LeftForeArm -23.030618 -0.000000 119.143367
LeftHand 10.285360 -0.000000 -13.526792
LeftHandThumb1 -26.253704 0.000000 33.147579
RightShoulder -17.720587 -17.086322 -21.238040
RightArm 12.251808 -18.308618 86.323086
RightForeArm -16.736058 -0.000000 20.253227
RightHand 18.200530 -0.000000 1.361130
RightHandThumb1 -24.326973 -0.000000 -32.862282
LeftUpLeg 10.003841 11.654855 -2.252751
LeftLeg -3.047906 -0.000000 0.000000
LeftFoot -19.105140 19.009461 -16.597805
LeftToeBase 19.573499 -0.000000 -0.000000
RightUpLeg 1.179065 -65.868094 -36.055327
RightLeg 77.942176 -0.000000 -0.000000
RightFoot 26.012254 -27.865756 22.633199
RightToeBase 15.522193 -0.000000 -0.000000
2565
root 6.159162 32.444018 -4.192488 1.550510 -30.799802 -9.478703
Spine 2.109882 18.168023 1.270361
Head 25.500306 -9.962592 4.081554
LeftShoulder -16.276804 3.493413 28.994897
LeftArm -13.815526 -29.968426 -72.717035
LeftForeArm -23.114847 -0.000000 119.121494
LeftHand 10.279995 -0.000000 -13.746283
LeftHandThumb1 -26.253704 0.000000 33.147579
RightShoulder -17.639481 -16.926107 -21.218290
RightArm 12.327157 -18.395187 86.366642
RightForeArm -16.640147 -0.000000 20.283144
RightHand 18.203123 0.000000 1.069477
RightHandThumb1 -24.326973 -0.000000 -32.862282
LeftUpLeg 10.033320 11.695771 -2.069082
LeftLeg -3.105790 -0.000000 0.000000
LeftFoot -19.173105 18.944646 -16.744450
LeftToeBase 20.157804 -0.000000 -0.000000
RightUpLeg 2.642165 -65.377065 -37.535893
RightLeg 77.871857 -0.000000 -0.000000
RightFoot 26.134963 -27.655752 22.402450
RightToeBase 14.861802 -0.000000 -0.000000
2566
root 6.144887 32.453071 -4.177705 1.652175 -30.974840 -9.635731
Spine 2.046776 18.490381 1.355507
Head 25.494162 -9.900842 4.125433
LeftShoulder -16.285056 3.513151 29.024302
LeftArm -13.865513 -30.093267 -72.730425
LeftForeArm -23.146524 -0.000000 119.122122
LeftHand 10.347755 -0.000000 -13.964033
LeftHandThumb1 -26.253704 0.000000 33.147579
RightShoulder -17.576063 -16.740465 -21.231745
RightArm 12.417740 -18.536261 86.389372
RightForeArm -16.623086 -0.000000 20.317384
RightHand 18.185983 -0.000000 0.989930
RightHandThumb1 -24.326973 -0.000000 -32.862282
LeftUpLeg 10.115858 11.757897 -1.925900
LeftLeg -3.184008 -0.000000 0.000000
LeftFoot -19.190949 18.939255 -16.828727
LeftToeBase 20.030626 -0.000000 -0.000000
RightUpLeg 4.101404 -64.782004 -39.076023
RightLeg 77.829509 -0.000000 -0.000000
RightFoot 26.101353 -27.761864 22.487562
RightToeBase 15.408411 -0.000000 -0.000000
2567
root 6.143947 32.462854 -4.174859 1.814288 -31.203348 -9.807511
Spine 1.983910 18.854846 1.484177
Head 25.444010 -9.844388 4.097375
LeftShoulder -16.304186 3.505589 28.989689
LeftArm -13.874519 -30.211919 -72.814235
LeftForeArm -23.266962 0.000000 119.138660
LeftHand 10.413267 -0.000000 -13.999177
LeftHandThumb1 -26.253704 0.000000 33.147579
RightShoulder -17.517864 -16.553923 -21.264408
RightArm 12.556212 -18.607454 86.402185
RightForeArm -16.627480 0.000000 20.377461
RightHand 18.176781 -0.000000 0.936098
RightHandThumb1 -24.326973 -0.000000 -32.862282
LeftUpLeg 10.104394 11.780333 -1.812138
LeftLeg -3.233777 -0.000000 0.000000
LeftFoot -19.246226 19.023750 -16.919582
LeftToeBase 20.115449 -0.000000 -0.000000
RightUpLeg 5.109444 -64.059568 -40.187021
RightLeg 77.776901 -0.000000 -0.000000
RightFoot 26.195178 -27.760512 22.400796
RightToeBase 15.866460 -0.000000 -0.000000
